<?xml version="1.0" encoding="UTF-8" standalone="no"?><!-- Generator: Gravit.io --><svg xmlns="http://www.w3.org/2000/svg" xmlns:xlink="http://www.w3.org/1999/xlink" style="isolation:isolate" viewBox="0 0 200 55" width="200pt" height="55pt"><g><path d=" M 68.554 43.648 L 62.416 43.648 L 62.416 16.914 L 53.322 16.914 L 53.322 11.094 L 77.647 11.094 L 77.647 16.914 L 68.554 16.914 L 68.554 43.648 L 68.554 43.648 Z  M 80.072 43.648 L 80.072 21.369 L 85.665 21.369 L 85.665 24.42 L 86.028 24.42 L 86.028 24.42 Q 86.437 23.603 87.119 22.924 L 87.119 22.924 L 87.119 22.924 Q 87.801 22.245 88.643 21.755 L 88.643 21.755 L 88.643 21.755 Q 89.484 21.265 90.461 20.953 L 90.461 20.953 L 90.461 20.953 Q 91.439 20.642 92.394 20.642 L 92.394 20.642 L 92.394 20.642 Q 93.576 20.642 94.417 20.894 L 94.417 20.894 L 94.417 20.894 Q 95.258 21.147 95.849 21.551 L 95.849 21.551 L 94.258 26.88 L 94.258 26.88 Q 93.712 26.603 93.053 26.442 L 93.053 26.442 L 93.053 26.442 Q 92.394 26.28 91.439 26.28 L 91.439 26.28 L 91.439 26.28 Q 90.211 26.28 89.211 26.76 L 89.211 26.76 L 89.211 26.76 Q 88.211 27.24 87.506 28.108 L 87.506 28.108 L 87.506 28.108 Q 86.801 28.977 86.415 30.142 L 86.415 30.142 L 86.415 30.142 Q 86.028 31.308 86.028 32.679 L 86.028 32.679 L 86.028 43.648 L 80.072 43.648 L 80.072 43.648 Z  M 112.915 43.648 L 112.915 41.284 L 112.551 41.284 L 112.551 41.284 Q 111.505 42.557 110.027 43.467 L 110.027 43.467 L 110.027 43.467 Q 108.55 44.376 106.231 44.376 L 106.231 44.376 L 106.231 44.376 Q 104.503 44.376 102.98 43.808 L 102.98 43.808 L 102.98 43.808 Q 101.457 43.24 100.32 42.239 L 100.32 42.239 L 100.32 42.239 Q 99.184 41.239 98.547 39.829 L 98.547 39.829 L 98.547 39.829 Q 97.91 38.42 97.91 36.738 L 97.91 36.738 L 97.91 36.738 Q 97.91 35.01 98.592 33.623 L 98.592 33.623 L 98.592 33.623 Q 99.274 32.236 100.502 31.236 L 100.502 31.236 L 100.502 31.236 Q 101.73 30.236 103.389 29.713 L 103.389 29.713 L 103.389 29.713 Q 105.049 29.19 107.004 29.19 L 107.004 29.19 L 107.004 29.19 Q 109.186 29.19 110.596 29.531 L 110.596 29.531 L 110.596 29.531 Q 112.005 29.872 112.915 30.235 L 112.915 30.235 L 112.915 29.553 L 112.915 29.553 Q 112.915 27.78 111.505 26.621 L 111.505 26.621 L 111.505 26.621 Q 110.096 25.461 108.004 25.461 L 108.004 25.461 L 108.004 25.461 Q 104.912 25.461 102.775 28.053 L 102.775 28.053 L 98.456 25.098 L 98.456 25.098 Q 102.002 20.642 108.141 20.642 L 108.141 20.642 L 108.141 20.642 Q 113.324 20.642 116.052 23.074 L 116.052 23.074 L 116.052 23.074 Q 118.78 25.507 118.78 30.281 L 118.78 30.281 L 118.78 43.648 L 112.915 43.648 L 112.915 43.648 Z  M 112.915 34.601 L 112.915 34.601 L 112.915 34.601 Q 111.869 34.101 110.755 33.805 L 110.755 33.805 L 110.755 33.805 Q 109.641 33.51 108.322 33.51 L 108.322 33.51 L 108.322 33.51 Q 106.185 33.51 105.026 34.442 L 105.026 34.442 L 105.026 34.442 Q 103.867 35.374 103.867 36.738 L 103.867 36.738 L 103.867 36.738 Q 103.867 38.101 104.981 38.92 L 104.981 38.92 L 104.981 38.92 Q 106.095 39.738 107.55 39.738 L 107.55 39.738 L 107.55 39.738 Q 108.732 39.738 109.732 39.306 L 109.732 39.306 L 109.732 39.306 Q 110.732 38.874 111.437 38.17 L 111.437 38.17 L 111.437 38.17 Q 112.142 37.465 112.528 36.533 L 112.528 36.533 L 112.528 36.533 Q 112.915 35.601 112.915 34.601 Z  M 133.618 44.376 L 133.618 44.376 L 133.618 44.376 Q 131.435 44.376 129.73 43.831 L 129.73 43.831 L 129.73 43.831 Q 128.025 43.285 126.775 42.398 L 126.775 42.398 L 126.775 42.398 Q 125.524 41.512 124.66 40.352 L 124.66 40.352 L 124.66 40.352 Q 123.797 39.193 123.342 38.01 L 123.342 38.01 L 128.662 35.737 L 128.662 35.737 Q 129.435 37.465 130.73 38.306 L 130.73 38.306 L 130.73 38.306 Q 132.026 39.147 133.618 39.147 L 133.618 39.147 L 133.618 39.147 Q 135.254 39.147 136.209 38.556 L 136.209 38.556 L 136.209 38.556 Q 137.164 37.965 137.164 37.147 L 137.164 37.147 L 137.164 37.147 Q 137.164 36.237 136.368 35.669 L 136.368 35.669 L 136.368 35.669 Q 135.573 35.101 133.618 34.646 L 133.618 34.646 L 130.48 33.964 L 130.48 33.964 Q 129.435 33.737 128.321 33.237 L 128.321 33.237 L 128.321 33.237 Q 127.207 32.736 126.297 31.963 L 126.297 31.963 L 126.297 31.963 Q 125.388 31.19 124.797 30.099 L 124.797 30.099 L 124.797 30.099 Q 124.206 29.008 124.206 27.553 L 124.206 27.553 L 124.206 27.553 Q 124.206 25.916 124.911 24.643 L 124.911 24.643 L 124.911 24.643 Q 125.615 23.37 126.843 22.483 L 126.843 22.483 L 126.843 22.483 Q 128.07 21.596 129.73 21.119 L 129.73 21.119 L 129.73 21.119 Q 131.39 20.642 133.299 20.642 L 133.299 20.642 L 133.299 20.642 Q 136.482 20.642 138.983 21.892 L 138.983 21.892 L 138.983 21.892 Q 141.483 23.142 142.666 25.871 L 142.666 25.871 L 137.528 27.962 L 137.528 27.962 Q 136.891 26.644 135.664 26.052 L 135.664 26.052 L 135.664 26.052 Q 134.436 25.461 133.208 25.461 L 133.208 25.461 L 133.208 25.461 Q 131.935 25.461 130.98 25.984 L 130.98 25.984 L 130.98 25.984 Q 130.026 26.507 130.026 27.326 L 130.026 27.326 L 130.026 27.326 Q 130.026 28.099 130.821 28.553 L 130.821 28.553 L 130.821 28.553 Q 131.617 29.008 132.981 29.372 L 132.981 29.372 L 136.391 30.19 L 136.391 30.19 Q 139.801 31.009 141.461 32.805 L 141.461 32.805 L 141.461 32.805 Q 143.12 34.601 143.12 37.056 L 143.12 37.056 L 143.12 37.056 Q 143.12 38.511 142.438 39.829 L 142.438 39.829 L 142.438 39.829 Q 141.756 41.148 140.506 42.171 L 140.506 42.171 L 140.506 42.171 Q 139.255 43.194 137.505 43.785 L 137.505 43.785 L 137.505 43.785 Q 135.754 44.376 133.618 44.376 Z  M 148.273 43.648 L 148.273 11.094 L 154.229 11.094 L 154.229 20.232 L 153.866 24.279 L 154.229 24.279 L 154.229 24.279 Q 155.184 22.688 156.98 21.665 L 156.98 21.665 L 156.98 21.665 Q 158.776 20.642 161.004 20.642 L 161.004 20.642 L 161.004 20.642 Q 165.323 20.642 167.392 23.188 L 167.392 23.188 L 167.392 23.188 Q 169.461 25.734 169.461 30.144 L 169.461 30.144 L 169.461 43.648 L 163.505 43.648 L 163.505 30.872 L 163.505 30.872 Q 163.505 28.553 162.414 27.348 L 162.414 27.348 L 162.414 27.348 Q 161.322 26.143 159.367 26.143 L 159.367 26.143 L 159.367 26.143 Q 158.14 26.143 157.185 26.666 L 157.185 26.666 L 157.185 26.666 Q 156.23 27.189 155.571 28.099 L 155.571 28.099 L 155.571 28.099 Q 154.911 29.008 154.57 30.213 L 154.57 30.213 L 154.57 30.213 Q 154.229 31.418 154.229 32.782 L 154.229 32.782 L 154.229 43.648 L 148.273 43.648 L 148.273 43.648 Z  M 177.478 53.47 L 182.434 42.558 L 173.068 21.369 L 179.843 21.369 L 185.481 34.873 L 185.799 34.873 L 191.21 21.369 L 197.848 21.369 L 183.889 53.47 L 177.478 53.47 L 177.478 53.47 Z " fill="rgb(42,59,71)"/><g><g opacity="0"><rect x="0" y="1.461" width="52.231" height="52.231" transform="matrix(1,0,0,1,0,0)" fill="rgb(235,235,235)"/></g><path d=" M 9.793 50.498 C 9.793 52.259 11.202 53.691 12.933 53.691 L 36.969 53.691 C 38.702 53.691 40.11 52.259 40.11 50.498 L 40.11 22.597 C 40.11 22.273 39.847 22.01 39.523 22.01 L 10.38 22.01 C 10.056 22.01 9.793 22.273 9.793 22.597 L 9.792 50.498 L 9.793 50.498 Z  M 40.602 12.71 L 33.179 9.808 L 34.086 7.41 C 34.586 6.088 33.935 4.599 32.635 4.09 L 26.347 1.632 C 25.046 1.124 23.582 1.786 23.082 3.107 L 22.175 5.505 L 14.752 2.603 C 13.211 2 11.474 2.785 10.881 4.353 L 9.746 7.354 C 9.631 7.657 9.783 7.999 10.085 8.117 L 11.11 8.518 L 39.408 19.582 L 40.433 19.983 C 40.735 20.101 41.073 19.95 41.188 19.647 L 42.323 16.646 C 42.916 15.078 42.144 13.312 40.602 12.71 Z  M 31.607 9.193 L 23.747 6.12 L 24.654 3.722 C 24.821 3.281 25.309 3.061 25.742 3.23 L 32.03 5.689 C 32.464 5.858 32.681 6.354 32.514 6.795 L 31.607 9.193 Z  M 35.5 31.788 L 21.297 46.229 C 20.86 46.673 20.15 46.673 19.713 46.229 L 13.767 40.182 C 13.329 39.738 13.329 39.017 13.767 38.573 C 14.204 38.128 14.913 38.128 15.35 38.573 L 20.505 43.814 L 33.917 30.178 C 34.354 29.733 35.063 29.733 35.5 30.178 C 35.937 30.622 35.937 31.343 35.5 31.788 Z  M 35.97 32.266 L 21.767 46.707 C 21.767 46.707 21.767 46.707 21.767 46.707 C 21.433 47.048 20.978 47.239 20.505 47.239 C 20.031 47.239 19.577 47.048 19.243 46.707 C 19.243 46.707 19.243 46.707 19.243 46.707 L 13.296 40.661 C 12.962 40.32 12.772 39.859 12.772 39.378 C 12.772 38.896 12.962 38.435 13.296 38.095 C 13.63 37.754 14.085 37.563 14.558 37.563 C 15.032 37.563 15.486 37.754 15.82 38.095 L 20.505 42.857 L 33.446 29.699 C 33.446 29.699 33.446 29.699 33.446 29.699 C 33.78 29.36 34.236 29.167 34.708 29.167 C 35.182 29.167 35.636 29.36 35.97 29.699 C 36.306 30.039 36.494 30.502 36.494 30.983 C 36.494 31.465 36.306 31.926 35.97 32.266 Z  M 35.5 30.178 C 35.063 29.733 34.354 29.733 33.917 30.178 L 20.505 43.814 L 15.35 38.573 C 14.913 38.128 14.204 38.128 13.767 38.573 C 13.329 39.017 13.329 39.738 13.767 40.182 L 19.713 46.229 C 20.15 46.673 20.86 46.673 21.297 46.229 L 35.5 31.788 C 35.937 31.343 35.937 30.622 35.5 30.178 Z " fill-rule="evenodd" fill="rgb(18,146,238)"/></g></g></svg>